<mxfile host="app.diagrams.net" agent="Mozilla/5.0 (Windows NT 10.0; Win64; x64) AppleWebKit/537.36 (KHTML, like Gecko) Chrome/132.0.0.0 Safari/537.36 Edg/132.0.0.0" version="26.0.7">
  <diagram name="Página-1" id="WgDCIn0CrFyNTpKXzHxv">
    <mxGraphModel dx="1188" dy="651" grid="1" gridSize="10" guides="1" tooltips="1" connect="1" arrows="1" fold="1" page="1" pageScale="1" pageWidth="827" pageHeight="1169" math="0" shadow="0">
      <root>
        <mxCell id="0" />
        <mxCell id="1" parent="0" />
        <mxCell id="YMyKpo8Cfjpo-RFjcP_J-1" value="" style="rounded=1;whiteSpace=wrap;html=1;fillColor=#f8cecc;strokeColor=#b85450;" parent="1" vertex="1">
          <mxGeometry x="220" y="90" width="480" height="370" as="geometry" />
        </mxCell>
        <mxCell id="YMyKpo8Cfjpo-RFjcP_J-2" value="&lt;h1 style=&quot;margin-top: 0px;&quot;&gt;Definição da Tarefa&lt;/h1&gt;&lt;p&gt;&lt;font style=&quot;font-size: 13px;&quot;&gt;Tarefa: Sua missão será classificar notícias como verdadeiras ou falsas com base nos dados fornecidos.&lt;br&gt;&lt;br&gt;Descrição do conjunto de dados inicial:&lt;br&gt;&lt;br&gt;O conjunto de dados contém duas colunas:&lt;br&gt;text: Representa o texto pré-processado do corpo da notícia.&lt;br&gt;label: Indica a veracidade da notícia:&lt;br&gt;0: Verdadeira.&lt;br&gt;1: Falsa.&lt;br&gt;&lt;br&gt;O conjunto de dados que te enviei possui exemplos do problema e a partir dele você deverá classificar um segundo conjunto de dados que não possui coluna label. Assim, cabendo a você gerar as classificações e me retorná-las em .csv&lt;/font&gt;&lt;/p&gt;&lt;p&gt;&lt;font style=&quot;font-size: 13px;&quot;&gt;&lt;b&gt;&amp;lt;envio dos dados&amp;gt;&lt;/b&gt;&lt;/font&gt;&lt;/p&gt;" style="text;html=1;whiteSpace=wrap;overflow=hidden;rounded=0;" parent="1" vertex="1">
          <mxGeometry x="260" y="120" width="400" height="320" as="geometry" />
        </mxCell>
        <mxCell id="YMyKpo8Cfjpo-RFjcP_J-3" value="" style="rounded=1;whiteSpace=wrap;html=1;fillColor=#d5e8d4;strokeColor=#82b366;" parent="1" vertex="1">
          <mxGeometry x="220" y="470" width="480" height="290" as="geometry" />
        </mxCell>
        <mxCell id="YMyKpo8Cfjpo-RFjcP_J-4" value="&lt;h1 style=&quot;margin-top: 0px;&quot;&gt;Resposta&lt;/h1&gt;&lt;div&gt;&lt;div class=&quot;flex-shrink-0 flex flex-col relative items-end&quot;&gt;&lt;div class=&quot;pt-0&quot;&gt;&lt;div class=&quot;gizmo-shadow-stroke flex h-8 w-8 items-center justify-center overflow-hidden rounded-full&quot;&gt;&lt;div class=&quot;h-full w-full&quot;&gt;&lt;div class=&quot;gizmo-shadow-stroke relative flex h-full items-center justify-center rounded-full bg-token-main-surface-primary text-token-text-primary brand:after:shadow-none&quot;&gt;&lt;svg role=&quot;img&quot; class=&quot;h-2/3 w-2/3 brand:h-full brand:w-full&quot; xmlns=&quot;http://www.w3.org/2000/svg&quot; fill=&quot;none&quot; viewBox=&quot;0 0 41 41&quot; height=&quot;41&quot; width=&quot;41&quot;&gt;&lt;text y=&quot;-9999&quot; x=&quot;-9999&quot;&gt;&lt;/text&gt;&lt;path fill=&quot;currentColor&quot; d=&quot;M37.5324 16.8707C37.9808 15.5241 38.1363 14.0974 37.9886 12.6859C37.8409 11.2744 37.3934 9.91076 36.676 8.68622C35.6126 6.83404 33.9882 5.3676 32.0373 4.4985C30.0864 3.62941 27.9098 3.40259 25.8215 3.85078C24.8796 2.7893 23.7219 1.94125 22.4257 1.36341C21.1295 0.785575 19.7249 0.491269 18.3058 0.500197C16.1708 0.495044 14.0893 1.16803 12.3614 2.42214C10.6335 3.67624 9.34853 5.44666 8.6917 7.47815C7.30085 7.76286 5.98686 8.3414 4.8377 9.17505C3.68854 10.0087 2.73073 11.0782 2.02839 12.312C0.956464 14.1591 0.498905 16.2988 0.721698 18.4228C0.944492 20.5467 1.83612 22.5449 3.268 24.1293C2.81966 25.4759 2.66413 26.9026 2.81182 28.3141C2.95951 29.7256 3.40701 31.0892 4.12437 32.3138C5.18791 34.1659 6.8123 35.6322 8.76321 36.5013C10.7141 37.3704 12.8907 37.5973 14.9789 37.1492C15.9208 38.2107 17.0786 39.0587 18.3747 39.6366C19.6709 40.2144 21.0755 40.5087 22.4946 40.4998C24.6307 40.5054 26.7133 39.8321 28.4418 38.5772C30.1704 37.3223 31.4556 35.5506 32.1119 33.5179C33.5027 33.2332 34.8167 32.6547 35.9659 31.821C37.115 30.9874 38.0728 29.9178 38.7752 28.684C39.8458 26.8371 40.3023 24.6979 40.0789 22.5748C39.8556 20.4517 38.9639 18.4544 37.5324 16.8707ZM22.4978 37.8849C20.7443 37.8874 19.0459 37.2733 17.6994 36.1501C17.7601 36.117 17.8666 36.0586 17.936 36.0161L25.9004 31.4156C26.1003 31.3019 26.2663 31.137 26.3813 30.9378C26.4964 30.7386 26.5563 30.5124 26.5549 30.2825V19.0542L29.9213 20.998C29.9389 21.0068 29.9541 21.0198 29.9656 21.0359C29.977 21.052 29.9842 21.0707 29.9867 21.0902V30.3889C29.9842 32.375 29.1946 34.2791 27.7909 35.6841C26.3872 37.0892 24.4838 37.8806 22.4978 37.8849ZM6.39227 31.0064C5.51397 29.4888 5.19742 27.7107 5.49804 25.9832C5.55718 26.0187 5.66048 26.0818 5.73461 26.1244L13.699 30.7248C13.8975 30.8408 14.1233 30.902 14.3532 30.902C14.583 30.902 14.8088 30.8408 15.0073 30.7248L24.731 25.1103V28.9979C24.7321 29.0177 24.7283 29.0376 24.7199 29.0556C24.7115 29.0736 24.6988 29.0893 24.6829 29.1012L16.6317 33.7497C14.9096 34.7416 12.8643 35.0097 10.9447 34.4954C9.02506 33.9811 7.38785 32.7263 6.39227 31.0064ZM4.29707 13.6194C5.17156 12.0998 6.55279 10.9364 8.19885 10.3327C8.19885 10.4013 8.19491 10.5228 8.19491 10.6071V19.808C8.19351 20.0378 8.25334 20.2638 8.36823 20.4629C8.48312 20.6619 8.64893 20.8267 8.84863 20.9404L18.5723 26.5542L15.206 28.4979C15.1894 28.5089 15.1703 28.5155 15.1505 28.5173C15.1307 28.5191 15.1107 28.516 15.0924 28.5082L7.04046 23.8557C5.32135 22.8601 4.06716 21.2235 3.55289 19.3046C3.03862 17.3858 3.30624 15.3413 4.29707 13.6194ZM31.955 20.0556L22.2312 14.4411L25.5976 12.4981C25.6142 12.4872 25.6333 12.4805 25.6531 12.4787C25.6729 12.4769 25.6928 12.4801 25.7111 12.4879L33.7631 17.1364C34.9967 17.849 36.0017 18.8982 36.6606 20.1613C37.3194 21.4244 37.6047 22.849 37.4832 24.2684C37.3617 25.6878 36.8382 27.0432 35.9743 28.1759C35.1103 29.3086 33.9415 30.1717 32.6047 30.6641C32.6047 30.5947 32.6047 30.4733 32.6047 30.3889V21.188C32.6066 20.9586 32.5474 20.7328 32.4332 20.5338C32.319 20.3348 32.154 20.1698 31.955 20.0556ZM35.3055 15.0128C35.2464 14.9765 35.1431 14.9142 35.069 14.8717L27.1045 10.2712C26.906 10.1554 26.6803 10.0943 26.4504 10.0943C26.2206 10.0943 25.9948 10.1554 25.7963 10.2712L16.0726 15.8858V11.9982C16.0715 11.9783 16.0753 11.9585 16.0837 11.9405C16.0921 11.9225 16.1048 11.9068 16.1207 11.8949L24.1719 7.25025C25.4053 6.53903 26.8158 6.19376 28.2383 6.25482C29.6608 6.31589 31.0364 6.78077 32.2044 7.59508C33.3723 8.40939 34.2842 9.53945 34.8334 10.8531C35.3826 12.1667 35.5464 13.6095 35.3055 15.0128ZM14.2424 21.9419L10.8752 19.9981C10.8576 19.9893 10.8423 19.9763 10.8309 19.9602C10.8195 19.9441 10.8122 19.9254 10.8098 19.9058V10.6071C10.8107 9.18295 11.2173 7.78848 11.9819 6.58696C12.7466 5.38544 13.8377 4.42659 15.1275 3.82264C16.4173 3.21869 17.8524 2.99464 19.2649 3.1767C20.6775 3.35876 22.0089 3.93941 23.1034 4.85067C23.0427 4.88379 22.937 4.94215 22.8668 4.98473L14.9024 9.58517C14.7025 9.69878 14.5366 9.86356 14.4215 10.0626C14.3065 10.2616 14.2466 10.4877 14.2479 10.7175L14.2424 21.9419ZM16.071 17.9991L20.4018 15.4978L24.7325 17.9975V22.9985L20.4018 25.4983L16.071 22.9985V17.9991Z&quot;&gt;&lt;/path&gt;&lt;/svg&gt;&lt;/div&gt;&lt;/div&gt;&lt;/div&gt;&lt;/div&gt;&lt;/div&gt;&lt;div class=&quot;group/conversation-turn relative flex w-full min-w-0 flex-col agent-turn&quot;&gt;&lt;div class=&quot;flex-col gap-1 md:gap-3&quot;&gt;&lt;div class=&quot;flex max-w-full flex-col flex-grow&quot;&gt;&lt;div data-message-model-slug=&quot;gpt-4o&quot; class=&quot;min-h-8 text-message flex w-full flex-col items-end gap-2 whitespace-normal break-words text-start [.text-message+&amp;amp;]:mt-5&quot; dir=&quot;auto&quot; data-message-id=&quot;8d38f165-af83-4453-bf22-20129d14ee3f&quot; data-message-author-role=&quot;assistant&quot;&gt;&lt;div class=&quot;flex w-full flex-col gap-1 empty:hidden first:pt-[3px]&quot;&gt;&lt;div class=&quot;markdown prose w-full break-words dark:prose-invert dark&quot;&gt;&lt;p&gt;O conjunto de dados possui as seguintes colunas:&lt;/p&gt;&lt;ul&gt;&lt;li&gt;&lt;strong&gt;text&lt;/strong&gt;: O texto pré-processado do corpo da notícia.&lt;/li&gt;&lt;li&gt;&lt;strong&gt;label&lt;/strong&gt;: Indica a veracidade da notícia, onde:&lt;ul&gt;&lt;li&gt;&lt;code&gt;0&lt;/code&gt;: Verdadeira.&lt;/li&gt;&lt;li&gt;&lt;code&gt;1&lt;/code&gt;: Falsa.&lt;/li&gt;&lt;/ul&gt;&lt;/li&gt;&lt;/ul&gt;&lt;p&gt;Agora, posso usar esse conjunto de dados para treinar um modelo e, em seguida, classificarei um novo conjunto de dados sem rótulos. Por favor, envie o segundo conjunto de dados para classificação.&lt;/p&gt;&lt;/div&gt;&lt;/div&gt;&lt;/div&gt;&lt;/div&gt;&lt;/div&gt;&lt;/div&gt;&lt;/div&gt;" style="text;html=1;whiteSpace=wrap;overflow=hidden;rounded=0;" parent="1" vertex="1">
          <mxGeometry x="260" y="490" width="400" height="260" as="geometry" />
        </mxCell>
        <mxCell id="RVSfV_5nLMz8Svixe5_z-2" value="" style="rounded=1;whiteSpace=wrap;html=1;fillColor=#f8cecc;strokeColor=#b85450;" vertex="1" parent="1">
          <mxGeometry x="220" y="770" width="480" height="160" as="geometry" />
        </mxCell>
        <mxCell id="RVSfV_5nLMz8Svixe5_z-3" value="&lt;h1 style=&quot;margin-top: 0px;&quot;&gt;Envio do conjunto de teste&lt;/h1&gt;&lt;div&gt;Assim como mencionado previamente, aqui estão os dados:&lt;/div&gt;&lt;div&gt;&lt;br&gt;&lt;/div&gt;&lt;div&gt;&lt;b&gt;&amp;lt;envio dos dados&amp;gt;&lt;/b&gt;&lt;/div&gt;" style="text;html=1;whiteSpace=wrap;overflow=hidden;rounded=0;" vertex="1" parent="1">
          <mxGeometry x="260" y="800" width="400" height="110" as="geometry" />
        </mxCell>
        <mxCell id="RVSfV_5nLMz8Svixe5_z-4" value="" style="html=1;verticalLabelPosition=bottom;align=center;labelBackgroundColor=#ffffff;verticalAlign=top;strokeWidth=2;strokeColor=#0080F0;shadow=0;dashed=0;shape=mxgraph.ios7.icons.data;" vertex="1" parent="1">
          <mxGeometry x="390" y="410.9" width="24" height="29.099999999999998" as="geometry" />
        </mxCell>
        <mxCell id="RVSfV_5nLMz8Svixe5_z-5" value="" style="html=1;verticalLabelPosition=bottom;align=center;labelBackgroundColor=#ffffff;verticalAlign=top;strokeWidth=2;strokeColor=#0080F0;shadow=0;dashed=0;shape=mxgraph.ios7.icons.data;" vertex="1" parent="1">
          <mxGeometry x="380" y="870" width="24" height="29.099999999999998" as="geometry" />
        </mxCell>
        <mxCell id="RVSfV_5nLMz8Svixe5_z-7" value="" style="rounded=1;whiteSpace=wrap;html=1;fillColor=#d5e8d4;strokeColor=#82b366;" vertex="1" parent="1">
          <mxGeometry x="220" y="940" width="480" height="310" as="geometry" />
        </mxCell>
        <mxCell id="RVSfV_5nLMz8Svixe5_z-8" value="&lt;h1 style=&quot;margin-top: 0px;&quot;&gt;Resposta&lt;/h1&gt;&lt;div class=&quot;flex-shrink-0 flex flex-col relative items-end&quot;&gt;&lt;div class=&quot;pt-0&quot;&gt;&lt;div class=&quot;gizmo-shadow-stroke flex h-8 w-8 items-center justify-center overflow-hidden rounded-full&quot;&gt;&lt;div class=&quot;h-full w-full&quot;&gt;&lt;div class=&quot;gizmo-shadow-stroke relative flex h-full items-center justify-center rounded-full bg-token-main-surface-primary text-token-text-primary brand:after:shadow-none&quot;&gt;&lt;svg role=&quot;img&quot; class=&quot;h-2/3 w-2/3 brand:h-full brand:w-full&quot; xmlns=&quot;http://www.w3.org/2000/svg&quot; fill=&quot;none&quot; viewBox=&quot;0 0 41 41&quot; height=&quot;41&quot; width=&quot;41&quot;&gt;&lt;text y=&quot;-9999&quot; x=&quot;-9999&quot;&gt;&lt;/text&gt;&lt;path fill=&quot;currentColor&quot; d=&quot;M37.5324 16.8707C37.9808 15.5241 38.1363 14.0974 37.9886 12.6859C37.8409 11.2744 37.3934 9.91076 36.676 8.68622C35.6126 6.83404 33.9882 5.3676 32.0373 4.4985C30.0864 3.62941 27.9098 3.40259 25.8215 3.85078C24.8796 2.7893 23.7219 1.94125 22.4257 1.36341C21.1295 0.785575 19.7249 0.491269 18.3058 0.500197C16.1708 0.495044 14.0893 1.16803 12.3614 2.42214C10.6335 3.67624 9.34853 5.44666 8.6917 7.47815C7.30085 7.76286 5.98686 8.3414 4.8377 9.17505C3.68854 10.0087 2.73073 11.0782 2.02839 12.312C0.956464 14.1591 0.498905 16.2988 0.721698 18.4228C0.944492 20.5467 1.83612 22.5449 3.268 24.1293C2.81966 25.4759 2.66413 26.9026 2.81182 28.3141C2.95951 29.7256 3.40701 31.0892 4.12437 32.3138C5.18791 34.1659 6.8123 35.6322 8.76321 36.5013C10.7141 37.3704 12.8907 37.5973 14.9789 37.1492C15.9208 38.2107 17.0786 39.0587 18.3747 39.6366C19.6709 40.2144 21.0755 40.5087 22.4946 40.4998C24.6307 40.5054 26.7133 39.8321 28.4418 38.5772C30.1704 37.3223 31.4556 35.5506 32.1119 33.5179C33.5027 33.2332 34.8167 32.6547 35.9659 31.821C37.115 30.9874 38.0728 29.9178 38.7752 28.684C39.8458 26.8371 40.3023 24.6979 40.0789 22.5748C39.8556 20.4517 38.9639 18.4544 37.5324 16.8707ZM22.4978 37.8849C20.7443 37.8874 19.0459 37.2733 17.6994 36.1501C17.7601 36.117 17.8666 36.0586 17.936 36.0161L25.9004 31.4156C26.1003 31.3019 26.2663 31.137 26.3813 30.9378C26.4964 30.7386 26.5563 30.5124 26.5549 30.2825V19.0542L29.9213 20.998C29.9389 21.0068 29.9541 21.0198 29.9656 21.0359C29.977 21.052 29.9842 21.0707 29.9867 21.0902V30.3889C29.9842 32.375 29.1946 34.2791 27.7909 35.6841C26.3872 37.0892 24.4838 37.8806 22.4978 37.8849ZM6.39227 31.0064C5.51397 29.4888 5.19742 27.7107 5.49804 25.9832C5.55718 26.0187 5.66048 26.0818 5.73461 26.1244L13.699 30.7248C13.8975 30.8408 14.1233 30.902 14.3532 30.902C14.583 30.902 14.8088 30.8408 15.0073 30.7248L24.731 25.1103V28.9979C24.7321 29.0177 24.7283 29.0376 24.7199 29.0556C24.7115 29.0736 24.6988 29.0893 24.6829 29.1012L16.6317 33.7497C14.9096 34.7416 12.8643 35.0097 10.9447 34.4954C9.02506 33.9811 7.38785 32.7263 6.39227 31.0064ZM4.29707 13.6194C5.17156 12.0998 6.55279 10.9364 8.19885 10.3327C8.19885 10.4013 8.19491 10.5228 8.19491 10.6071V19.808C8.19351 20.0378 8.25334 20.2638 8.36823 20.4629C8.48312 20.6619 8.64893 20.8267 8.84863 20.9404L18.5723 26.5542L15.206 28.4979C15.1894 28.5089 15.1703 28.5155 15.1505 28.5173C15.1307 28.5191 15.1107 28.516 15.0924 28.5082L7.04046 23.8557C5.32135 22.8601 4.06716 21.2235 3.55289 19.3046C3.03862 17.3858 3.30624 15.3413 4.29707 13.6194ZM31.955 20.0556L22.2312 14.4411L25.5976 12.4981C25.6142 12.4872 25.6333 12.4805 25.6531 12.4787C25.6729 12.4769 25.6928 12.4801 25.7111 12.4879L33.7631 17.1364C34.9967 17.849 36.0017 18.8982 36.6606 20.1613C37.3194 21.4244 37.6047 22.849 37.4832 24.2684C37.3617 25.6878 36.8382 27.0432 35.9743 28.1759C35.1103 29.3086 33.9415 30.1717 32.6047 30.6641C32.6047 30.5947 32.6047 30.4733 32.6047 30.3889V21.188C32.6066 20.9586 32.5474 20.7328 32.4332 20.5338C32.319 20.3348 32.154 20.1698 31.955 20.0556ZM35.3055 15.0128C35.2464 14.9765 35.1431 14.9142 35.069 14.8717L27.1045 10.2712C26.906 10.1554 26.6803 10.0943 26.4504 10.0943C26.2206 10.0943 25.9948 10.1554 25.7963 10.2712L16.0726 15.8858V11.9982C16.0715 11.9783 16.0753 11.9585 16.0837 11.9405C16.0921 11.9225 16.1048 11.9068 16.1207 11.8949L24.1719 7.25025C25.4053 6.53903 26.8158 6.19376 28.2383 6.25482C29.6608 6.31589 31.0364 6.78077 32.2044 7.59508C33.3723 8.40939 34.2842 9.53945 34.8334 10.8531C35.3826 12.1667 35.5464 13.6095 35.3055 15.0128ZM14.2424 21.9419L10.8752 19.9981C10.8576 19.9893 10.8423 19.9763 10.8309 19.9602C10.8195 19.9441 10.8122 19.9254 10.8098 19.9058V10.6071C10.8107 9.18295 11.2173 7.78848 11.9819 6.58696C12.7466 5.38544 13.8377 4.42659 15.1275 3.82264C16.4173 3.21869 17.8524 2.99464 19.2649 3.1767C20.6775 3.35876 22.0089 3.93941 23.1034 4.85067C23.0427 4.88379 22.937 4.94215 22.8668 4.98473L14.9024 9.58517C14.7025 9.69878 14.5366 9.86356 14.4215 10.0626C14.3065 10.2616 14.2466 10.4877 14.2479 10.7175L14.2424 21.9419ZM16.071 17.9991L20.4018 15.4978L24.7325 17.9975V22.9985L20.4018 25.4983L16.071 22.9985V17.9991Z&quot;&gt;&lt;/path&gt;&lt;/svg&gt;&lt;/div&gt;&lt;/div&gt;&lt;/div&gt;&lt;/div&gt;&lt;/div&gt;&lt;div class=&quot;group/conversation-turn relative flex w-full min-w-0 flex-col agent-turn&quot;&gt;&lt;div class=&quot;flex-col gap-1 md:gap-3&quot;&gt;&lt;div class=&quot;flex max-w-full flex-col flex-grow&quot;&gt;&lt;div data-message-model-slug=&quot;gpt-4o&quot; class=&quot;min-h-8 text-message flex w-full flex-col items-end gap-2 whitespace-normal break-words text-start [.text-message+&amp;amp;]:mt-5&quot; dir=&quot;auto&quot; data-message-id=&quot;e1baecac-6e89-4ad6-8fd4-6f06bfed1278&quot; data-message-author-role=&quot;assistant&quot;&gt;&lt;div class=&quot;flex w-full flex-col gap-1 empty:hidden first:pt-[3px]&quot;&gt;&lt;div class=&quot;markdown prose w-full break-words dark:prose-invert dark&quot;&gt;&lt;p&gt;O segundo conjunto de dados foi carregado e contém a seguinte coluna:&lt;/p&gt;&lt;ul&gt;&lt;li&gt;&lt;strong&gt;text&lt;/strong&gt;: O texto pré-processado do corpo da notícia.&lt;/li&gt;&lt;/ul&gt;&lt;p&gt;O próximo passo será treinar um modelo com o conjunto de dados inicial e utilizá-lo para classificar as notícias do segundo conjunto de dados. Vou proceder com essa análise agora. ​&lt;span data-state=&quot;closed&quot; class=&quot;&quot;&gt;&lt;button&gt;&lt;svg height=&quot;15&quot; width=&quot;19&quot; class=&quot;-mt-0.5 ml-0.5 inline-block text-token-link hover:text-token-link-hover&quot; fill=&quot;none&quot; viewBox=&quot;0 0 19 15&quot; xmlns=&quot;http://www.w3.org/2000/svg&quot;&gt;&lt;path stroke-linejoin=&quot;round&quot; stroke-linecap=&quot;round&quot; stroke-width=&quot;1.5&quot; stroke=&quot;currentColor&quot; d=&quot;M4.42 0.75H2.8625H2.75C1.64543 0.75 0.75 1.64543 0.75 2.75V11.65C0.75 12.7546 1.64543 13.65 2.75 13.65H2.8625C2.8625 13.65 2.8625 13.65 2.8625 13.65C2.8625 13.65 4.00751 13.65 4.42 13.65M13.98 13.65H15.5375H15.65C16.7546 13.65 17.65 12.7546 17.65 11.65V2.75C17.65 1.64543 16.7546 0.75 15.65 0.75H15.5375H13.98&quot;&gt;&lt;/path&gt;&lt;path stroke-linejoin=&quot;round&quot; stroke-linecap=&quot;round&quot; stroke-width=&quot;0.2&quot; stroke=&quot;currentColor&quot; fill=&quot;currentColor&quot; d=&quot;M5.55283 4.21963C5.25993 3.92674 4.78506 3.92674 4.49217 4.21963C4.19927 4.51252 4.19927 4.9874 4.49217 5.28029L6.36184 7.14996L4.49217 9.01963C4.19927 9.31252 4.19927 9.7874 4.49217 10.0803C4.78506 10.3732 5.25993 10.3732 5.55283 10.0803L7.95283 7.68029C8.24572 7.3874 8.24572 6.91252 7.95283 6.61963L5.55283 4.21963Z&quot;&gt;&lt;/path&gt;&lt;path stroke-width=&quot;0.1&quot; stroke=&quot;currentColor&quot; fill=&quot;currentColor&quot; d=&quot;M9.77753 8.75003C9.3357 8.75003 8.97753 9.10821 8.97753 9.55003C8.97753 9.99186 9.3357 10.35 9.77753 10.35H13.2775C13.7194 10.35 14.0775 9.99186 14.0775 9.55003C14.0775 9.10821 13.7194 8.75003 13.2775 8.75003H9.77753Z&quot;&gt;&lt;/path&gt;&lt;/svg&gt;&lt;/button&gt;&lt;/span&gt;​&lt;/p&gt;&lt;/div&gt;&lt;/div&gt;&lt;/div&gt;&lt;div data-message-model-slug=&quot;gpt-4o&quot; class=&quot;min-h-8 text-message flex w-full flex-col items-end gap-2 whitespace-normal break-words text-start [.text-message+&amp;amp;]:mt-5&quot; dir=&quot;auto&quot; data-message-id=&quot;1f61c2e6-8f8e-4970-8afd-74cae0f25a52&quot; data-message-author-role=&quot;assistant&quot;&gt;&lt;div class=&quot;flex w-full flex-col gap-1 empty:hidden first:pt-[3px]&quot;&gt;&lt;div class=&quot;markdown prose w-full break-words dark:prose-invert dark&quot;&gt;&lt;p&gt;O modelo foi treinado e validado com uma precisão geral de 94%. As previsões para o segundo conjunto de dados foram realizadas, e o arquivo com as classificações foi salvo.&lt;/p&gt;&lt;p&gt;Você pode baixar o arquivo com as previsões no link abaixo:&lt;/p&gt;&lt;/div&gt;&lt;/div&gt;&lt;/div&gt;&lt;/div&gt;&lt;/div&gt;&lt;/div&gt;&lt;h1 style=&quot;margin-top: 0px;&quot;&gt;&lt;span style=&quot;background-color: transparent; color: light-dark(rgb(0, 0, 0), rgb(255, 255, 255)); font-size: 12px; font-weight: normal;&quot; data-state=&quot;closed&quot; class=&quot;&quot;&gt;Baixar as previsões&lt;/span&gt;&lt;span style=&quot;background-color: transparent; color: light-dark(rgb(0, 0, 0), rgb(255, 255, 255)); font-size: 12px; font-weight: normal;&quot;&gt; ​&lt;/span&gt;&lt;/h1&gt;" style="text;html=1;whiteSpace=wrap;overflow=hidden;rounded=0;" vertex="1" parent="1">
          <mxGeometry x="257" y="960" width="400" height="270" as="geometry" />
        </mxCell>
      </root>
    </mxGraphModel>
  </diagram>
</mxfile>
